<?xml version="1.0" encoding="UTF-8"?>
<svg id="Layer_1" data-name="Layer 1" xmlns="http://www.w3.org/2000/svg" xmlns:xlink="http://www.w3.org/1999/xlink" viewBox="0 0 2406.9787 2406.9787">
  <defs>
    <style>
      .cls-1 {
        fill: url(#linear-gradient);
      }
    </style>
    <linearGradient id="linear-gradient" x1="882.042541" y1="1140.779927" x2="1622.978712" y2="1140.779927" gradientUnits="userSpaceOnUse">
      <stop offset="0" stop-color="#5de3f0"/>
      <stop offset=".999999" stop-color="#0056bb"/>
    </linearGradient>
  </defs>
  <path class="cls-1" d="m1285.151433,1383.981729c1.684049-98.58889-26.303769-189.932021-67.506654-278.09283-17.197045-36.795838-35.448402-73.003318-60.592552-105.17053-4.926893-6.30301-10.903389-12.174385-17.442845-16.747507-13.766507-9.62725-27.582694-5.548267-31.606918,10.755091-3.412698,13.826036-4.849832,28.813301-3.64425,42.987532,4.883779,57.425031,23.948479,111.277112,43.995758,164.782483,21.775681,58.117953,44.719281,115.840818,64.745251,174.557411,13.346765,39.132915,14.411483,79.769989-.632587,119.315833-19.274448,50.665421-55.111991,83.471973-108.094174,96.190982-40.166663,9.642551-80.633575,9.962561-120.096289-3.046105-59.773014-19.703853-91.286828-63.215567-100.26266-124.227363-6.288144-42.742476,3.709479-83.952174,12.579694-125.267303,15.153899-70.58249,31.656598-140.93157,44.479862-211.940802,10.817161-59.900061,13.576706-120.798497,11.92363-181.800568-1.282147-47.315969-2.36613-94.656965-2.202284-141.982226.061574-17.761677,2.478065-35.818896,6.269932-53.20729,11.548241-52.956659,49.815532-75.443596,103.201352-62.370941,43.236307,10.587343,78.942278,34.862335,112.283792,62.623616,65.782217,54.772713,119.250548,120.405143,165.602959,192.084563,5.671353,8.770297,11.888321,17.343546,18.896085,25.060213,13.385914,14.739669,28.305102,11.469755,32.519746-7.820921,3.511191-16.071186,5.223116-32.74981,5.732059-49.221225,1.367879-44.282687,1.07178-88.620196,2.697724-132.889627.600499-16.349445,2.63677-33.251258,7.679872-48.706335,10.44363-32.005163,38.640327-49.002372,74.329945-47.789542,32.504259,1.104549,56.792819,19.346489,65.034164,52.460538,4.68642,18.829802,5.812465,38.69812,7.098328,58.194022,4.361207,66.124649,6.052317,132.493981,12.628569,198.384105,6.225021,62.371251,16.406002,124.405208,26.495304,186.318992,13.370799,82.051812,29.182001,163.796498,31.606546,247.141235.630605,21.678797-1.491522,44.114815-6.650463,65.148017-11.72206,47.792516-42.358292,80.308295-89.076676,95.876175-56.369112,18.783839-112.53814,17.343236-164.911028-12.115165-46.974095-26.421464-73.112469-68.358153-76.829691-122.613808-1.520513-22.191829-.251498-44.574698-.251498-66.870719Z"/>
</svg>