<?xml version="1.0" encoding="UTF-8"?>
<svg id="Layer_1" data-name="Layer 1" xmlns="http://www.w3.org/2000/svg" viewBox="0 0 2406.9787 2406.9787">
  <path fill="#ffffff" d="m1287.290629,1367.737385c1.571565-92.003775-24.546843-177.245762-62.997636-259.517986-16.048391-34.338108-33.080673-68.127157-56.545352-98.145803-4.597807-5.882009-10.175111-11.361213-16.277773-15.628879-12.846991-8.984211-25.740344-5.177678-29.495775,10.036719-3.184752,12.902544-4.525894,26.888754-3.400837,40.116236,4.557573,53.589402,22.348872,103.844504,41.057119,153.776054,20.321203,54.236041,41.732315,108.103383,60.420677,162.898079,12.455285,36.519084,13.448887,74.441858-.590334,111.346289-17.987036,47.281291-51.430858,77.896572-100.874166,89.766032-37.483783,8.998489-75.247761,9.297125-112.074616-2.842644-55.780554-18.38776-85.189444-58.993166-93.565748-115.92976-5.868135-39.887548,3.461709-78.344699,11.73945-116.900238,14.141714-65.868026,29.542137-131.518231,41.508888-197.784495,10.094643-55.899116,12.669868-112.729921,11.127207-169.657438-1.196507-44.155562-2.208087-88.334478-2.055186-132.49871.057461-16.575309,2.312546-33.42642,5.85114-49.653379,10.776891-49.419489,46.488169-70.404441,96.308153-58.204956,40.348395,9.880175,73.669433,32.533751,104.783944,58.440754,61.388381,51.114242,111.285365,112.362841,154.541727,179.254528,5.292542,8.184497,11.094256,16.185106,17.633946,23.386349,12.49182,13.755152,26.4145,10.703648,30.347632-7.298533,3.276666-14.997733,4.874245-30.562329,5.349194-45.933558,1.276514-41.324883,1.000192-82.700927,2.517533-124.013439.56039-15.257406,2.46065-31.030284,7.166905-45.453059,9.746061-29.867421,36.059397-45.729323,69.365174-44.597503,30.33318,1.030772,52.999417,18.054266,60.690293,48.956506,4.373397,17.572091,5.424229,36.11333,6.624205,54.307029,4.069906,61.70794,5.648061,123.644221,11.785061,185.1333,5.809229,58.205245,15.310185,116.095726,24.725585,173.87406,12.477715,76.571269,27.232828,152.855927,29.495428,230.633761.588484,20.23079-1.391898,41.168224-6.206254,60.796541-10.9391,44.600278-39.529026,74.944209-83.126917,89.472252-52.604011,17.529197-105.021303,16.184817-153.896013-11.305948-43.836522-24.656677-68.229018-63.79226-71.697953-114.42398-1.418952-20.709555-.2347-41.59739-.2347-62.404178Z"/>
</svg>
